<?xml version="1.0" encoding="UTF-8" standalone="no"?>
<!-- Created with Inkscape (http://www.inkscape.org/) -->

<svg
  width="53.522438mm"
  height="21.75164mm"
  viewBox="0 0 53.522438 21.75164"
  version="1.1"
  id="svg5"
  xmlns="http://www.w3.org/2000/svg"
  xmlns:svg="http://www.w3.org/2000/svg">
  <defs
    id="defs2" />
  <g
    id="layer1"
    transform="translate(-72.416864,-13.804538)">
    <g
      id="g3525">
      <path
        d="m 72.416866,23.053781 c 0,2.64776 0.30788,4.71055 0.923641,6.18837 0.584966,1.508607 1.554783,2.586183 2.90945,3.23273 1.32388,0.646547 3.15576,0.96982 5.49564,0.96982 2.216727,0 3.894667,-0.292487 5.03382,-0.87746 1.139147,-0.584967 2.062784,-1.647147 2.770911,-3.18654 0.461813,1.323873 1.062177,2.355267 1.80109,3.09418 0.70812,0.769693 1.662543,1.30848 2.86327,1.61636 1.16994,0.338667 2.709333,0.508 4.61818,0.508 2.647762,0 4.741342,-0.323273 6.280732,-0.96982 1.50861,-0.64654 2.60158,-1.724113 3.27891,-3.23272 0.64655,-1.47782 0.96982,-3.54061 0.96982,-6.18837 V 13.817421 H 72.416866 Z"
        style="font-size:192px;font-family:'VictorMono Nerd Font';-inkscape-font-specification:'VictorMono Nerd Font';white-space:pre;fill:#ebf5ff;fill-opacity:1;stroke-width:0.264583"
        id="path2658" />
      <path
        d="m 72.416866,23.053781 q 0,3.97164 0.923641,6.18837 0.877449,2.26291 2.90945,3.23273 1.98582,0.96982 5.49564,0.96982 3.32509,0 5.03382,-0.87746 1.70872,-0.87745 2.770911,-3.18654 0.69272,1.98581 1.80109,3.09418 1.06218,1.15454 2.86327,1.61636 1.75491,0.508 4.61818,0.508 3.971642,0 6.280732,-0.96982 2.26291,-0.96981 3.27891,-3.23272 0.96982,-2.21673 0.96982,-6.18837 V 13.817421 H 72.416866 Z m 15.932731,0 q 0,2.81709 -0.55418,4.3411 -0.554191,1.524 -1.93964,2.17054 -1.43164,0.64655 -4.11018,0.64655 -2.49382,0 -3.83309,-0.64655 -1.38546,-0.64654 -1.93964,-2.17054 -0.60036,-1.52401 -0.60036,-4.3411 v -6.003633 h 12.97709 z m 18.057093,1.15455 q 0,2.81709 -0.69273,4.34109 -0.69273,1.524 -2.30909,2.17055 -1.61636,0.64654 -4.572002,0.64654 -3.048,0 -4.61818,-0.64654 -1.61636,-0.64655 -2.26291,-2.17055 -0.646551,-1.524 -0.646551,-4.34109 v -7.158183 h 15.101463 z"
        style="font-size:192px;font-family:'VictorMono Nerd Font';-inkscape-font-specification:'VictorMono Nerd Font';white-space:pre;fill:#7d4524;fill-opacity:1;stroke-width:0.264583"
        id="path279" />
      <path
        d="m 125.93931,25.350001 q 0,3.048 -0.73891,4.94145 -0.78509,1.89346 -2.49382,3.14036 -1.75491,1.20073 -4.84909,2.12437 l -0.83127,-3.048 q 2.35527,-0.69273 3.64836,-1.524 1.24691,-0.87746 1.80109,-2.17055 0.508,-1.33927 0.508,-3.46363 0,-3.23273 -1.29309,-4.987643 -1.29309,-1.80109 -4.29491,-2.54 -3.048,-0.78509 -8.58981,-0.78509 H 91.302949 v 6.049823 h -2.95564 v -9.282553 h 20.458551 q 6.55781,0 10.25236,1.10837 3.64836,1.06218 5.26473,3.556 1.61636,2.44763 1.61636,6.881093 z"
        style="font-size:192px;font-family:'VictorMono Nerd Font';-inkscape-font-specification:'VictorMono Nerd Font';white-space:pre;fill:#914e2a;fill-opacity:1;stroke-width:0.264583"
        id="path277" />
    </g>
  </g>
</svg>