<?xml version="1.0" encoding="UTF-8"?>
<!-- Created with Inkscape (http://www.inkscape.org/) -->
<svg width="53.522mm" height="21.752mm" version="1.1" viewBox="0 0 53.522 21.752" xmlns="http://www.w3.org/2000/svg">
  <g transform="translate(-72.417 -13.805)">
    <g stroke-width=".26458">
      <path
        d="m72.417 23.054c0 2.6478 0.30788 4.7106 0.92364 6.1884 0.58497 1.5086 1.5548 2.5862 2.9094 3.2327 1.3239 0.64655 3.1558 0.96982 5.4956 0.96982 2.2167 0 3.8947-0.29249 5.0338-0.87746 1.1391-0.58497 2.0628-1.6471 2.7709-3.1865 0.46181 1.3239 1.0622 2.3553 1.8011 3.0942 0.70812 0.76969 1.6625 1.3085 2.8633 1.6164 1.1699 0.33867 2.7093 0.508 4.6182 0.508 2.6478 0 4.7413-0.32327 6.2807-0.96982 1.5086-0.64654 2.6016-1.7241 3.2789-3.2327 0.64655-1.4778 0.96982-3.5406 0.96982-6.1884v-10.391h-36.945z"
        fill="#ebf5ff" />
      <path
        d="m72.417 23.054q0 3.9716 0.92364 6.1884 0.87745 2.2629 2.9094 3.2327 1.9858 0.96982 5.4956 0.96982 3.3251 0 5.0338-0.87746 1.7087-0.87745 2.7709-3.1865 0.69272 1.9858 1.8011 3.0942 1.0622 1.1545 2.8633 1.6164 1.7549 0.508 4.6182 0.508 3.9716 0 6.2807-0.96982 2.2629-0.96981 3.2789-3.2327 0.96982-2.2167 0.96982-6.1884v-10.391h-36.945zm15.933 0q0 2.8171-0.55418 4.3411-0.55419 1.524-1.9396 2.1705-1.4316 0.64655-4.1102 0.64655-2.4938 0-3.8331-0.64655-1.3855-0.64654-1.9396-2.1705-0.60036-1.524-0.60036-4.3411v-6.0036h12.977zm18.057 1.1546q0 2.8171-0.69273 4.3411t-2.3091 2.1706q-1.6164 0.64654-4.572 0.64654-3.048 0-4.6182-0.64654-1.6164-0.64655-2.2629-2.1706-0.64655-1.524-0.64655-4.3411v-7.1582h15.101z"
        fill="#7d4524" />
      <path
        d="m125.94 25.35q0 3.048-0.73891 4.9414-0.78509 1.8935-2.4938 3.1404-1.7549 1.2007-4.8491 2.1244l-0.83127-3.048q2.3553-0.69273 3.6484-1.524 1.2469-0.87746 1.8011-2.1706 0.508-1.3393 0.508-3.4636 0-3.2327-1.2931-4.9876-1.2931-1.8011-4.2949-2.54-3.048-0.78509-8.5898-0.78509h-17.503v6.0498h-2.9556v-9.2826h20.459q6.5578 0 10.252 1.1084 3.6484 1.0622 5.2647 3.556 1.6164 2.4476 1.6164 6.8811z"
        fill="#914e2a" />
    </g>
  </g>
</svg>